<svg xmlns="http://www.w3.org/2000/svg" width="27.668" height="19.668" viewBox="0 0 27.668 19.668"><defs><style>.a{fill:#ca8008;}</style></defs><path class="a" d="M26.539-1015.332a6.1,6.1,0,0,0-6.095-6.095,10.988,10.988,0,0,0-2.688.266,9.761,9.761,0,0,1,1.912,5.829H18.131a8.307,8.307,0,0,0-8.3-8.3,8.307,8.307,0,0,0-8.3,8.3H0a9.771,9.771,0,0,1,2.88-6.953,9.807,9.807,0,0,1,3.737-2.345,5.683,5.683,0,0,1-2.468-4.684A5.691,5.691,0,0,1,9.833-1035a5.691,5.691,0,0,1,5.685,5.685,5.683,5.683,0,0,1-2.468,4.684,9.807,9.807,0,0,1,3.737,2.345q.142.142.278.289a3.628,3.628,0,0,0,1.015-.166,4.174,4.174,0,0,1-1.814-3.441,4.182,4.182,0,0,1,4.177-4.177,4.181,4.181,0,0,1,4.176,4.177,4.174,4.174,0,0,1-1.814,3.441,7.2,7.2,0,0,1,2.745,1.722,7.179,7.179,0,0,1,2.116,5.108ZM17.4-1025.6a3.051,3.051,0,0,0,3.048,3.047,3.051,3.051,0,0,0,3.047-3.047,3.051,3.051,0,0,0-3.047-3.048A3.051,3.051,0,0,0,17.4-1025.6Zm-11.711-3.712a4.153,4.153,0,0,0,4.148,4.149,4.154,4.154,0,0,0,4.149-4.149,4.154,4.154,0,0,0-4.149-4.149A4.153,4.153,0,0,0,5.685-1029.315Z" transform="translate(0 1035)"/></svg>