<svg xmlns="http://www.w3.org/2000/svg" width="20.289" height="20.324" viewBox="0 0 20.289 20.324"><defs><style>.a{fill:none;stroke:#ca8008;stroke-linecap:round;stroke-linejoin:round;stroke-width:2px;}</style></defs><path class="a" d="M14.43,4.982A4.352,4.352,0,0,1,17.869,8.42M14.43,1.5a7.834,7.834,0,0,1,6.92,6.912m-.87,6.946V17.97a1.741,1.741,0,0,1-1.9,1.741,17.227,17.227,0,0,1-7.512-2.672,16.974,16.974,0,0,1-5.223-5.223A17.227,17.227,0,0,1,3.175,4.268a1.741,1.741,0,0,1,1.732-1.9H7.519a1.741,1.741,0,0,1,1.741,1.5,11.177,11.177,0,0,0,.609,2.446A1.741,1.741,0,0,1,9.477,8.15L8.372,9.256a13.928,13.928,0,0,0,5.223,5.223L14.7,13.373a1.741,1.741,0,0,1,1.837-.392,11.177,11.177,0,0,0,2.446.609A1.741,1.741,0,0,1,20.48,15.358Z" transform="translate(-2.167 -0.396)"/></svg>