<svg xmlns="http://www.w3.org/2000/svg" width="19" height="21.907" viewBox="0 0 19 21.907"><defs><style>.a{fill:#ca8008;}</style></defs><g transform="translate(-33.975)"><path class="a" d="M52.335,2.689A2.051,2.051,0,0,1,50.286.64V0H36.664V.64a2.051,2.051,0,0,1-2.048,2.049h-.64V9.05A13.31,13.31,0,0,0,42.06,21.3l1.415.6L44.89,21.3A13.31,13.31,0,0,0,52.975,9.05V2.689ZM37.882,1.28H49.068a3.339,3.339,0,0,0,2.627,2.627V4.994H48.118a5.677,5.677,0,0,0-9.286,0H35.255V3.907A3.339,3.339,0,0,0,37.882,1.28Zm6.233,11.34v-1.5l1.516-.875L46.924,11A4.4,4.4,0,0,1,44.115,12.62ZM41.959,7.39l1-.58.511-.3,1.516.875V9.141l-1.516.875-1.516-.875Zm-2.886.875a4.378,4.378,0,0,1,.31-1.622l1.3.747v1.75l-1.295.748A4.379,4.379,0,0,1,39.073,8.266Zm6.558-1.984-1.516-.875v-1.5a4.4,4.4,0,0,1,2.809,1.624Zm-2.8-.875-.947.547-.569.329-1.294-.746a4.4,4.4,0,0,1,2.81-1.624v1.5ZM40.026,11l1.293-.747.781.451.735.424v1.5A4.4,4.4,0,0,1,40.026,11Zm7.851-2.731a4.378,4.378,0,0,1-.31,1.623l-1.295-.748V7.39l1.295-.747A4.378,4.378,0,0,1,47.876,8.266ZM35.255,9.05V6.275h2.9a5.676,5.676,0,0,0,1.728,6.389v5.879A12.03,12.03,0,0,1,35.255,9.05Zm8.22,11.465s-1.866-.836-2.313-1.1v-5.96a5.677,5.677,0,0,0,4.626,0v5.96C45.341,19.679,43.475,20.515,43.475,20.515Zm3.593-1.973V12.663A5.676,5.676,0,0,0,48.8,6.275h2.9V9.05A12.03,12.03,0,0,1,47.068,18.542Z"/></g></svg>