<svg xmlns="http://www.w3.org/2000/svg" xmlns:xlink="http://www.w3.org/1999/xlink" width="375" height="118" viewBox="0 0 375 118"><defs><style>.a{fill:#ca8008;}.b{fill:url(#a);}.c{clip-path:url(#b);}.d{opacity:0.203;}.e{fill:url(#c);}.f{fill:url(#d);}.g{fill:url(#e);}.h{fill:url(#f);}.i{fill:url(#g);}.j{fill:url(#h);}.k{fill:url(#i);}.l{fill:url(#j);}.m{fill:url(#k);}</style><linearGradient id="a" y1="0.5" x2="1" y2="0.5" gradientUnits="objectBoundingBox"><stop offset="0" stop-color="#ca8008"/><stop offset="1" stop-color="#edb04d"/></linearGradient><clipPath id="b"><rect class="a" width="375" height="113"/></clipPath><linearGradient id="c" x1="-90.878" y1="104.996" x2="-91.753" y2="109.688" gradientUnits="objectBoundingBox"><stop offset="0" stop-color="#f8e67d"/><stop offset="0.022" stop-color="#ecd46c"/><stop offset="0.07" stop-color="#d6b44e"/><stop offset="0.122" stop-color="#c49935"/><stop offset="0.179" stop-color="#b68522"/><stop offset="0.243" stop-color="#ac7715"/><stop offset="0.321" stop-color="#a66e0d"/><stop offset="0.447" stop-color="#a56c0b"/><stop offset="0.518" stop-color="#a76f0e"/><stop offset="0.582" stop-color="#ae7a18"/><stop offset="0.642" stop-color="#ba8c29"/><stop offset="0.7" stop-color="#cca540"/><stop offset="0.756" stop-color="#e2c65f"/><stop offset="0.802" stop-color="#f8e67d"/><stop offset="0.836" stop-color="#f4e177"/><stop offset="0.88" stop-color="#ecd267"/><stop offset="0.93" stop-color="#ddbb4c"/><stop offset="0.983" stop-color="#ca9a28"/><stop offset="1" stop-color="#c38f1b"/></linearGradient><linearGradient id="d" x1="-70.494" y1="67.139" x2="-71.185" y2="70.116" xlink:href="#c"/><linearGradient id="e" x1="-52.075" y1="61.796" x2="-52.595" y2="64.526" xlink:href="#c"/><linearGradient id="f" x1="-22.019" y1="75.609" x2="-22.241" y2="78.982" xlink:href="#c"/><linearGradient id="g" x1="-30.897" y1="85.823" x2="-31.205" y2="89.647" xlink:href="#c"/><linearGradient id="h" x1="-287.902" y1="356.234" x2="-290.679" y2="372.198" xlink:href="#c"/><linearGradient id="i" x1="-192.75" y1="78.144" x2="-194.619" y2="81.614" xlink:href="#c"/><linearGradient id="j" x1="-23.655" y1="96.147" x2="-23.893" y2="100.443" xlink:href="#c"/><linearGradient id="k" x1="-72.944" y1="66.587" x2="-73.659" y2="69.54" xlink:href="#c"/></defs><rect class="b" width="375" height="118"/><g class="c"><g class="d" transform="translate(-5.718 -3.241)"><path class="e" d="M176.994,70.137a15.933,15.933,0,0,0,.247-17.246c-3.3-5.295-9.541-8.264-15.674-8.279a20.516,20.516,0,0,0-16.18,7.693,25.056,25.056,0,0,0-5.012,17.261,25.314,25.314,0,0,0,7.669,16.2,30,30,0,0,0,16.211,7.523,32.667,32.667,0,0,0,8.987-.079,31.068,31.068,0,0,0,8.55-2.664,32.016,32.016,0,0,0,7.385-5,33.46,33.46,0,0,0,5.621-6.865.429.429,0,0,0-.715-.475l-.013.02A32.408,32.408,0,0,1,188.4,84.67a30.631,30.631,0,0,1-7.232,4.526,32.456,32.456,0,0,1-8.175,2.3,30.784,30.784,0,0,1-8.46-.093,28.583,28.583,0,0,1-14.956-7.225,23.052,23.052,0,0,1-2.306-30.387,18.216,18.216,0,0,1,14.292-6.982c5.446,0,11.186,2.361,14.251,7.007a15.1,15.1,0,0,1,2.544,7.814,15.449,15.449,0,0,1-2,8.11.376.376,0,0,0,.144.514A.381.381,0,0,0,176.994,70.137Z" transform="translate(14.484 -2.927)"/><path class="f" d="M174.781,122.7a.925.925,0,0,0-.434-.588c-.285-.127-.209-.082-.319-.129l-.407-.148-.807-.318c-.541-.208-1.07-.452-1.6-.684-1.054-.483-2.108-.974-3.124-1.537a54.5,54.5,0,0,1-5.915-3.65,43.182,43.182,0,0,1-9.875-9.578,35.146,35.146,0,0,1-5.825-12.308,75.469,75.469,0,0,1-1.8-13.776c-.352-4.656-.49-9.5-2.132-14.172a20.435,20.435,0,0,0-3.646-6.4,24.4,24.4,0,0,0-5.538-4.768A52.471,52.471,0,0,0,120.226,49a133.278,133.278,0,0,0-13.821-3.12l-.008,0-.147,1.058a10.647,10.647,0,0,1,5.445,3.791,21.88,21.88,0,0,1,3.283,6.069A45.112,45.112,0,0,1,117.4,70.668c.168,2.381.054,4.718.15,7.167a47.913,47.913,0,0,0,.533,7.424,38.879,38.879,0,0,0,4.656,14.2,36.08,36.08,0,0,0,9.817,11.282,33.96,33.96,0,0,0,3.034,2.185l3.2,1.92a61.263,61.263,0,0,0,6.766,3.015,73.37,73.37,0,0,0,14.18,3.8l3.615.564,3.63.393,1.813.194c.674.048,1.383.088,2.091.079C172.327,122.875,173.618,122.7,174.781,122.7Zm-1-.182c-1.243-.211-2.358-.609-3.321-.841a13.847,13.847,0,0,0-1.519-.252l-1.78-.288-3.554-.584-3.516-.749a76.889,76.889,0,0,1-13.646-4.2,47.9,47.9,0,0,1-12.155-7.072l-1.379-1.08-1.236-1.232L130.441,105a8.833,8.833,0,0,1-1.162-1.292l-2.158-2.727c-.625-.974-1.191-1.985-1.793-2.973a18.961,18.961,0,0,1-1.509-3.126,20.637,20.637,0,0,1-1.239-3.247l-.972-3.353c-.271-1.133-.391-2.3-.6-3.455a52.614,52.614,0,0,1-.592-7.013c-.147-2.378-.085-4.888-.311-7.324a47.364,47.364,0,0,0-3.172-14.467,22.044,22.044,0,0,0-4-6.38,11.216,11.216,0,0,0-6.593-3.77.533.533,0,0,0-.6.459.54.54,0,0,0,.452.6h.008a132.046,132.046,0,0,1,13.55,3.591,51.217,51.217,0,0,1,12.575,5.707,24.29,24.29,0,0,1,5.045,4.462,18.46,18.46,0,0,1,3.252,5.8c1.478,4.255,1.617,8.956,1.93,13.636a77.626,77.626,0,0,0,1.957,14.125,35.558,35.558,0,0,0,6.3,12.935,44.581,44.581,0,0,0,10.486,9.737,55.964,55.964,0,0,0,6.213,3.517c1.061.536,2.159,1,3.256,1.45.554.216,1.1.445,1.667.637l.844.3.427.138c.028,0,.242.1.1.013A.341.341,0,0,1,173.785,122.522Z" transform="translate(0.21 -34.155)"/><path class="g" d="M161.253,130.958a45.311,45.311,0,0,1-9.818-4.987,62.185,62.185,0,0,1-8.736-6.886,71.873,71.873,0,0,1-13.443-17.7A73.991,73.991,0,0,1,124.721,91.2c-1.252-3.53-2.3-7.152-3.37-10.814a97.032,97.032,0,0,0-3.763-11,33.353,33.353,0,0,0-6.366-10.021,35.462,35.462,0,0,0-9.465-7.1,23.137,23.137,0,0,0-11.508-3.051,20.764,20.764,0,0,0-11.365,3.552,19.87,19.87,0,0,0-7.444,9.24,14.593,14.593,0,0,0,.407,11.833,14.819,14.819,0,0,0,3.738,4.71,14.38,14.38,0,0,0,5.193,3.023,11.078,11.078,0,0,0,11.312-2.778,7.2,7.2,0,0,0,2.1-5.729,8.17,8.17,0,0,0-3.155-5.185.638.638,0,0,0-.827.971l.03.025a6.864,6.864,0,0,1,2.6,4.334,5.813,5.813,0,0,1-1.8,4.591,9.57,9.57,0,0,1-9.788,2.245,12.756,12.756,0,0,1-4.566-2.76,13.146,13.146,0,0,1-3.27-4.229A12.744,12.744,0,0,1,73.234,62.7a17.871,17.871,0,0,1,6.805-8.2A18.234,18.234,0,0,1,90.25,51.53a20.71,20.71,0,0,1,10.277,2.994,32.782,32.782,0,0,1,8.6,6.739c4.944,5.418,7.041,12.737,9.039,20.022.981,3.68,2.06,7.386,3.314,11.059a77.466,77.466,0,0,0,4.672,10.731,72.281,72.281,0,0,0,14.295,18.439c5.871,5.177,12.462,9.564,20.2,11.781a1.2,1.2,0,0,0,.732-2.293Z" transform="translate(-14.392 -49.214)"/><path class="h" d="M244.368,37.685A49.6,49.6,0,0,1,233.6,60.792a46.641,46.641,0,0,1-20.919,14.115A58.533,58.533,0,0,1,200.2,77.692c-1.057.164-2.127.242-3.2.317s-2.137.191-3.211.223c-2.152.017-4.3.146-6.453.013a98.087,98.087,0,0,1-25.448-4.034,104.971,104.971,0,0,1-23.5-10.56,219.971,219.971,0,0,1-21.291-15.082c-6.938-5.353-13.885-10.915-21.778-15.278a57.227,57.227,0,0,0-12.531-5.218c-1.094-.321-2.226-.517-3.336-.78-1.121-.22-2.261-.346-3.39-.521-1.132-.117-2.262-.167-3.394-.252l-3.415-.055a40.53,40.53,0,0,0-25.191,9.507A37.456,37.456,0,0,0,31.094,59.419a30.74,30.74,0,0,0,7.831,25.362A30.112,30.112,0,0,0,63.5,94.435a26.15,26.15,0,0,0,3.38-.564,26.951,26.951,0,0,0,3.251-1.077,23.335,23.335,0,0,0,5.914-3.4,24.489,24.489,0,0,0,7.961-10.881,25.81,25.81,0,0,0,1.423-6.644,20.128,20.128,0,0,0-.7-6.79A19.426,19.426,0,0,0,76.89,54.212,19,19,0,0,0,63.911,51a15.857,15.857,0,0,0-11.1,7.28,15.694,15.694,0,0,0-2.21,6.4A12.54,12.54,0,0,0,62.231,78.835a.433.433,0,1,0,.059-.863,11.682,11.682,0,0,1-9.805-6.99,11.432,11.432,0,0,1-.814-6.174A14.441,14.441,0,0,1,64.087,52.267a17.668,17.668,0,0,1,12,3.117A17.927,17.927,0,0,1,83.233,65.5a18.5,18.5,0,0,1,.575,6.247,24.255,24.255,0,0,1-1.39,6.178,22.731,22.731,0,0,1-7.491,10.017,21.471,21.471,0,0,1-5.494,3.079,24.041,24.041,0,0,1-3.006.957,24.541,24.541,0,0,1-3.116.473,26.791,26.791,0,0,1-12.39-2.018,28.813,28.813,0,0,1-10.25-7.248A28.167,28.167,0,0,1,33.8,59.8,34.526,34.526,0,0,1,46.051,38.352,37.448,37.448,0,0,1,69.3,29.916l3.17.088c1.056.093,2.121.148,3.169.27,1.037.177,2.081.3,3.112.516,1.02.257,2.057.444,3.065.753a53.637,53.637,0,0,1,11.668,5.025c7.44,4.252,14.265,9.718,21.2,15.1A224.028,224.028,0,0,0,136.32,67.073a101.148,101.148,0,0,0,24.457,10.881,101.859,101.859,0,0,0,26.467,3.954,70.93,70.93,0,0,0,26.511-3.991,48.63,48.63,0,0,0,21.788-15.552,50.009,50.009,0,0,0,10.2-24.545.691.691,0,0,0-1.366-.2Z" transform="translate(-30.76 21.716)"/><path class="i" d="M216.383,87.827c-.828.425-1.626.577-2.213.9-.561.345-1.422.832-2.176,1.249-1.523.91-3.145,1.634-4.742,2.4A61.145,61.145,0,0,1,197.2,95.81a67.992,67.992,0,0,1-21.094,1.86A92.926,92.926,0,0,1,135.875,85.08a105.084,105.084,0,0,1-16.906-12.852c-5.292-4.765-10.365-9.821-15.839-14.521-5.457-4.687-11.425-9.018-18.195-11.875a52.205,52.205,0,0,0-21.47-3.99l.5,2.623h.006a56.34,56.34,0,0,1,10.167-2.276A58.559,58.559,0,0,1,84.6,41.672a54.009,54.009,0,0,1,10.354,1.4c1.662.5,3.348.965,4.98,1.56l2.4,1.026a16.512,16.512,0,0,1,2.353,1.116l2.262,1.3a13.743,13.743,0,0,1,2.19,1.41l2.09,1.566a13.817,13.817,0,0,1,2.005,1.667c1.245,1.231,2.519,2.388,3.747,3.677l3.653,3.94A200.209,200.209,0,0,0,136.1,75.3,77.205,77.205,0,0,0,154.128,87.18,66.874,66.874,0,0,0,164.3,90.9a98.649,98.649,0,0,0,10.557,2.227c3.544.578,7.094,1.024,10.705,1.275a67.4,67.4,0,0,0,10.8-.362,64.816,64.816,0,0,0,10.584-2.121c1.725-.519,3.442-1.061,5.121-1.718.844-.314,1.673-.667,2.5-1.024.41-.188.825-.363,1.231-.565l.61-.3.3-.157c.017-.011.178-.083.076-.047C216.659,88.176,216.368,87.98,216.383,87.827Zm.811-.506a.737.737,0,0,0-.7-.124l-.223.106-.294.147-.6.283-1.208.54c-.815.343-1.632.681-2.466.981-1.656.629-3.352,1.145-5.053,1.639a63.664,63.664,0,0,1-10.426,1.978,66.008,66.008,0,0,1-10.6.247c-3.51-.278-7.053-.757-10.551-1.366a97.46,97.46,0,0,1-10.378-2.3,65.39,65.39,0,0,1-9.9-3.732,75.525,75.525,0,0,1-17.515-11.81,198.143,198.143,0,0,1-15.161-14.977l-3.592-3.955c-1.221-1.31-2.576-2.577-3.861-3.866a14.9,14.9,0,0,0-2.089-1.773l-2.182-1.67a15.153,15.153,0,0,0-2.291-1.508l-2.373-1.39a17.778,17.778,0,0,0-2.467-1.2l-2.517-1.105c-1.711-.644-3.476-1.149-5.223-1.693a56.205,56.205,0,0,0-10.83-1.577,60.812,60.812,0,0,0-10.912.424,58.6,58.6,0,0,0-10.735,2.3l-.008,0a1.349,1.349,0,0,0,.471,2.624h.028a49.607,49.607,0,0,1,20.422,3.582c6.462,2.648,12.271,6.753,17.689,11.312,10.807,9.134,20.632,19.986,33.278,27.219A94.469,94.469,0,0,0,176.032,99.06a69.347,69.347,0,0,0,21.463-2.113,62.207,62.207,0,0,0,10.2-3.6c1.619-.8,3.261-1.55,4.8-2.491a23.133,23.133,0,0,0,2.43-1.5C215.831,88.709,216.527,87.878,217.194,87.321Z" transform="translate(-17.796 -0.753)"/><path class="j" d="M143.47,70.487a9.323,9.323,0,0,1,2.457-10.977,7.63,7.63,0,0,1,5.471-1.916,7.188,7.188,0,0,1,5.08,2.64,5.917,5.917,0,0,1,1.246,5.432,5.519,5.519,0,0,1-3.962,3.859,4.474,4.474,0,0,1-4.867-2.265,3.6,3.6,0,0,1,1.509-4.942.277.277,0,0,0-.228-.506l-.014.007a4.278,4.278,0,0,0-1.988,5.818,5.341,5.341,0,0,0,5.771,2.784,6.472,6.472,0,0,0,4.751-4.465,6.792,6.792,0,0,0-1.389-6.4,8.227,8.227,0,0,0-5.847-2.967,8.6,8.6,0,0,0-6.143,2.2,9.875,9.875,0,0,0-2.445,11.987.331.331,0,0,0,.6-.288Z" transform="translate(15.113 2.771)"/><path class="k" d="M147.532,117.346l.4.425.1.109c.066-.02-.035-.068-.044-.1l-.184-.228q-.358-.458-.692-.935-.666-.956-1.251-1.961a31.121,31.121,0,0,1-2.031-4.17,28.757,28.757,0,0,1-2.024-8.969,27.256,27.256,0,0,1,1.01-9.063,38.566,38.566,0,0,1,3.692-8.374c2.972-5.413,6.691-10.325,10.031-15.7a30.742,30.742,0,0,0,2.243-4.313,10.612,10.612,0,0,0,.9-5.223,7.4,7.4,0,0,0-.957-2.747,9.176,9.176,0,0,0-1.836-2.105,9.293,9.293,0,0,0-4.93-2.257,8.211,8.211,0,0,0-5.35,1.306,15.159,15.159,0,0,0-3.746,3.448,36.326,36.326,0,0,0-4.8,8.353,42.672,42.672,0,0,0-2.84,9.092,58.445,58.445,0,0,0-1.016,9.408,57.314,57.314,0,0,0,.627,9.417,45.945,45.945,0,0,0,2.438,9.09,42.351,42.351,0,0,0,10.236,15.53Zm.027-.027a41.926,41.926,0,0,1-9.545-15.744,44.857,44.857,0,0,1-2.043-8.981,56.02,56.02,0,0,1-.26-9.2,46.848,46.848,0,0,1,4.378-17.649,33.974,33.974,0,0,1,4.752-7.609c1.875-2.2,4.369-3.92,6.733-3.495a7.574,7.574,0,0,1,3.4,1.665,4.7,4.7,0,0,1,1.925,2.931,8,8,0,0,1-.554,3.89,28.364,28.364,0,0,1-1.891,4.04c-2.991,5.323-6.582,10.527-9.366,16.158a39.891,39.891,0,0,0-3.437,8.82,28.235,28.235,0,0,0-.646,9.431,29.376,29.376,0,0,0,2.453,9.062,31.54,31.54,0,0,0,2.23,4.119c.421.656.869,1.3,1.341,1.915.237.309.482.613.735.909l.192.219c.031.014.069.123.1.057l-.1-.1-.417-.408Z" transform="translate(11.967 -37.229)"/><path class="l" d="M234.427,55.934A65.826,65.826,0,0,1,213.415,74.6a63.652,63.652,0,0,1-26.8,7.929,80.428,80.428,0,0,1-14.047-.288,90.054,90.054,0,0,1-13.8-2.72,108.446,108.446,0,0,1-13.284-4.7,131.17,131.17,0,0,1-12.626-6.3A176.181,176.181,0,0,1,109.444,52.7,136.492,136.492,0,0,0,85.371,37.394C76.8,33.323,67.385,30.311,57.744,30.8a35.464,35.464,0,0,0-7.072,1.228,30.286,30.286,0,0,0-6.581,2.819A26.492,26.492,0,0,0,34.16,44.865a24.076,24.076,0,0,1,4.468-5.47,27.564,27.564,0,0,1,5.7-4.129,29.739,29.739,0,0,1,6.526-2.577,34.774,34.774,0,0,1,6.937-1c9.411-.3,18.595,2.792,26.971,6.957A144.831,144.831,0,0,1,108.432,54a177.161,177.161,0,0,0,23.54,16.108,133.109,133.109,0,0,0,12.835,6.307,110.212,110.212,0,0,0,13.523,4.691,79.865,79.865,0,0,0,28.4,2.806,64.6,64.6,0,0,0,27.124-8.546A64.589,64.589,0,0,0,234.427,55.934Z" transform="translate(-29.355 26.006)"/><g transform="translate(105.681 11.425)"><path class="m" d="M105.548,46.438a.825.825,0,0,0,.716.817c.868.113,21.279,3.03,24.647,25.7,3.786,25.49,6.287,42.331,40.326,50.424a.824.824,0,1,0,.382-1.6c-32.954-7.835-35.39-24.237-39.077-49.063-3.554-23.927-25.841-27.066-26.065-27.1a.824.824,0,0,0-.921.712A.669.669,0,0,0,105.548,46.438Z" transform="translate(-105.548 -45.613)"/></g></g></g></svg>