<svg xmlns="http://www.w3.org/2000/svg" width="23.091" height="21.646" viewBox="0 0 23.091 21.646"><defs><style>.a{fill:#ca8008;}</style></defs><path class="a" d="M22.88,25.967l-8.974-8.974a3.341,3.341,0,0,0-4.72,0L.212,25.967a.722.722,0,0,0,1.02,1.02l.572-.572v9.173a2.077,2.077,0,0,0,2.075,2.075H19.213a2.077,2.077,0,0,0,2.075-2.075V26.415l.572.572a.722.722,0,0,0,1.02-1.02ZM9.381,36.22V30.537a.813.813,0,0,1,.812-.812H12.9a.813.813,0,0,1,.812.812V36.22Zm10.463-.631a.632.632,0,0,1-.631.631H15.154V30.537A2.258,2.258,0,0,0,12.9,28.282H10.193a2.258,2.258,0,0,0-2.255,2.255V36.22H3.879a.632.632,0,0,1-.631-.631V24.972l6.959-6.959a1.9,1.9,0,0,1,2.679,0l6.959,6.959Z" transform="translate(0 -16.017)"/></svg>