<svg xmlns="http://www.w3.org/2000/svg" xmlns:xlink="http://www.w3.org/1999/xlink" width="44.389" height="44.391" viewBox="0 0 44.389 44.391"><defs><style>.a{fill:url(#a);}.b{fill:#fff;}</style><radialGradient id="a" cx="0.293" cy="1.077" r="1.325" gradientTransform="translate(0)" gradientUnits="objectBoundingBox"><stop offset="0.097" stop-color="#ffd879"/><stop offset="0.154" stop-color="#fccb75"/><stop offset="0.258" stop-color="#f4aa6c"/><stop offset="0.398" stop-color="#e8745d"/><stop offset="0.449" stop-color="#e45f58"/><stop offset="0.679" stop-color="#d22a9c"/><stop offset="1" stop-color="#6968df"/></radialGradient></defs><g transform="translate(-312.038 -144.314)"><path class="a" d="M356.427,179.587a9.119,9.119,0,0,1-9.118,9.117H321.156a9.118,9.118,0,0,1-9.118-9.117V153.434a9.119,9.119,0,0,1,9.118-9.12H347.31a9.12,9.12,0,0,1,9.118,9.12Z" transform="translate(0 0)"/><g transform="translate(317.493 149.771)"><path class="b" d="M356.822,165.939H343.974a10.315,10.315,0,0,0-10.315,10.316V189.1a10.314,10.314,0,0,0,10.315,10.314h12.848A10.314,10.314,0,0,0,367.137,189.1V176.255A10.315,10.315,0,0,0,356.822,165.939Zm7.1,21.93a8.334,8.334,0,0,1-8.334,8.335H345.207a8.334,8.334,0,0,1-8.335-8.335V177.486a8.336,8.336,0,0,1,8.335-8.335H355.59a8.336,8.336,0,0,1,8.334,8.335Z" transform="translate(-333.659 -165.939)"/><path class="b" d="M375.645,197.563a8.818,8.818,0,1,0,8.818,8.817A8.817,8.817,0,0,0,375.645,197.563Zm0,14.122a5.305,5.305,0,1,1,5.3-5.3A5.305,5.305,0,0,1,375.645,211.685Z" transform="translate(-358.457 -189.583)"/><path class="b" d="M429.9,190.37a2.242,2.242,0,1,1-2.243-2.244A2.243,2.243,0,0,1,429.9,190.37Z" transform="translate(-402.266 -182.528)"/></g></g></svg>