<svg xmlns="http://www.w3.org/2000/svg" width="23.063" height="17.71" viewBox="0 0 23.063 17.71"><defs><style>.a{fill:#ca8008;stroke:#ca8008;}</style></defs><g transform="translate(0.5 -44.587)"><g transform="translate(0 45.087)"><path class="a" d="M0,47.874V59.011A2.792,2.792,0,0,0,2.787,61.8h9a2.792,2.792,0,0,0,2.787-2.787v-1.8a.552.552,0,0,0-1.1,0v1.8A1.691,1.691,0,0,1,11.783,60.7h-9A1.691,1.691,0,0,1,1.1,59.011V47.874a1.691,1.691,0,0,1,1.687-1.687h9a1.691,1.691,0,0,1,1.687,1.687v1.8a.552.552,0,0,0,1.1,0v-1.8a2.792,2.792,0,0,0-2.787-2.787H2.787A2.789,2.789,0,0,0,0,47.874Z" transform="translate(0 -45.087)"/><path class="a" d="M165.823,122.39a.552.552,0,0,0,.781,0l3.765-3.765a.547.547,0,0,0,0-.776l-3.765-3.765a.549.549,0,0,0-.776.776l2.827,2.827H158.338a.552.552,0,1,0,0,1.1H168.65l-2.827,2.827A.542.542,0,0,0,165.823,122.39Z" transform="translate(-148.529 -109.884)"/></g></g></svg>