<svg xmlns="http://www.w3.org/2000/svg" width="25.211" height="16.807" viewBox="0 0 25.211 16.807"><defs><style>.a{fill:#ca8008;}</style></defs><path class="a" d="M24.16,4.5H3.852A1.05,1.05,0,0,0,2.8,5.55V5.9H1.05A1.05,1.05,0,0,0,0,6.951V18.856a2.451,2.451,0,0,0,2.451,2.451H23.11a2.1,2.1,0,0,0,2.1-2.1V5.55A1.05,1.05,0,0,0,24.16,4.5ZM2.451,19.206a.35.35,0,0,1-.35-.35V8h.7V18.856A.35.35,0,0,1,2.451,19.206Zm10.329-.7H6.128a.525.525,0,0,1-.525-.525v-.35a.525.525,0,0,1,.525-.525h6.653a.525.525,0,0,1,.525.525v.35A.525.525,0,0,1,12.781,18.506Zm9.1,0H15.232a.525.525,0,0,1-.525-.525v-.35a.525.525,0,0,1,.525-.525h6.653a.525.525,0,0,1,.525.525v.35A.525.525,0,0,1,21.885,18.506Zm-9.1-4.2H6.128a.525.525,0,0,1-.525-.525v-.35a.525.525,0,0,1,.525-.525h6.653a.525.525,0,0,1,.525.525v.35A.525.525,0,0,1,12.781,14.3Zm9.1,0H15.232a.525.525,0,0,1-.525-.525v-.35a.525.525,0,0,1,.525-.525h6.653a.525.525,0,0,1,.525.525v.35A.525.525,0,0,1,21.885,14.3Zm0-4.2H6.128A.525.525,0,0,1,5.6,9.577V7.826A.525.525,0,0,1,6.128,7.3H21.885a.525.525,0,0,1,.525.525V9.577A.525.525,0,0,1,21.885,10.1Z" transform="translate(0 -4.5)"/></svg>