<svg xmlns="http://www.w3.org/2000/svg" width="20.197" height="18.643" viewBox="0 0 20.197 18.643"><defs><style>.a{fill:#ca8008;}</style></defs><path class="a" d="M17.284-1016.357H2.913A2.916,2.916,0,0,1,0-1019.269v-8.157a2.917,2.917,0,0,1,2.913-2.913h14.37a2.917,2.917,0,0,1,2.913,2.913v8.157A2.916,2.916,0,0,1,17.284-1016.357ZM16.5-1025a1.5,1.5,0,0,0-1.5,1.5,1.5,1.5,0,0,0,1.5,1.5,1.5,1.5,0,0,0,1.5-1.5A1.5,1.5,0,0,0,16.5-1025ZM.777-1030.581v0c0-1.073,1.265-1.945,2.137-2.138l11.4-2.228a2.3,2.3,0,0,1,.472-.049,2.282,2.282,0,0,1,1.625.676,2.789,2.789,0,0,1,.675,1.825v1H3.155a3.1,3.1,0,0,0-2.377.92Z" transform="translate(0 1035)"/></svg>