<svg xmlns="http://www.w3.org/2000/svg" xmlns:xlink="http://www.w3.org/1999/xlink" width="44.177" height="44.176" viewBox="0 0 44.177 44.176"><defs><style>.a{fill:url(#a);}.b{fill:#fff;}</style><linearGradient id="a" x1="0.5" x2="0.5" y2="1" gradientUnits="objectBoundingBox"><stop offset="0" stop-color="#7ef378"/><stop offset="1" stop-color="#5fb931"/></linearGradient></defs><g transform="translate(-101.893 -144.318)"><path class="a" d="M146.07,179.42A9.073,9.073,0,0,1,137,188.494H110.968a9.074,9.074,0,0,1-9.075-9.074V153.393a9.074,9.074,0,0,1,9.075-9.075H137a9.073,9.073,0,0,1,9.074,9.075Z"/><g transform="translate(108.145 150.12)"><path class="b" d="M142.924,167.421a16.133,16.133,0,0,0-13.872,24.371l-2.034,8.2,8.085-2.328a16.134,16.134,0,1,0,7.821-30.245Zm.183,29.589a13.326,13.326,0,0,1-7.588-2.36l-4.6,1.327,1.176-4.743a13.393,13.393,0,1,1,11.016,5.777Z" transform="translate(-126.79 -167.421)"/><path class="b" d="M162.618,207.983l.56-.645c.314-.365.785-.716.809-1.241a3.667,3.667,0,0,0-.334-1.463c-.115-.294-.232-.587-.345-.883a5.884,5.884,0,0,0-.763-1.6,1.43,1.43,0,0,0-1.632-.254s-3.166,1.522-2.191,4.566a14.324,14.324,0,0,0,11.385,10.349s3.408.488,4.321-1.583a3.65,3.65,0,0,0,.3-1.56,1.3,1.3,0,0,0-.753-1.008c-.5-.286-.946-.554-1.516-.836a1.642,1.642,0,0,0-2.632.354c-.369.391-.746.777-1.119,1.165C168.706,213.339,163.9,211.573,162.618,207.983Z" transform="translate(-150.564 -193.127)"/></g></g></svg>